<svg width="35" height="34" viewBox="0 0 35 34" fill="none" xmlns="http://www.w3.org/2000/svg">
<g clipPath="url(#clip0_604_29963)">
<path d="M25.9917 3.23863C24.2625 1.69381 22.1448 0.649787 19.8665 0.218904C17.5881 -0.211978 15.2354 -0.0134026 13.0616 0.79326C10.8877 1.59992 8.97493 2.98413 7.52916 4.79692C6.08339 6.60971 5.15933 8.78244 4.85643 11.0813C4.5844 13.097 4.80196 15.1486 5.4907 17.0624C6.17944 18.9762 7.31908 20.6959 8.81318 22.076C9.73713 22.8863 10.4827 23.8796 11.0026 24.9931C11.5225 26.1066 11.8055 27.316 11.8335 28.5445V28.7726C11.835 30.1586 12.3863 31.4873 13.3663 32.4674C14.3463 33.4474 15.6751 33.9986 17.061 34.0001H17.9394C19.3253 33.9986 20.6541 33.4474 21.6341 32.4674C22.6141 31.4873 23.1653 30.1586 23.1668 28.7726V27.9949C23.1881 26.9089 23.4436 25.8404 23.916 24.8624C24.3884 23.8844 25.0665 23.0199 25.9038 22.3282C27.2618 21.1388 28.3516 19.6745 29.101 18.0321C29.8503 16.3898 30.2421 14.607 30.2504 12.8018C30.2587 10.9966 29.8833 9.21026 29.1491 7.5611C28.4149 5.91194 27.3387 4.43761 25.9917 3.23579V3.23863ZM17.9394 31.1668H17.061C16.4263 31.166 15.8177 30.9136 15.3689 30.4647C14.9201 30.0159 14.6676 29.4074 14.6669 28.7726C14.6669 28.7726 14.6569 28.4043 14.6555 28.3335H20.3335V28.7726C20.3328 29.4074 20.0803 30.0159 19.6315 30.4647C19.1826 30.9136 18.5741 31.166 17.9394 31.1668ZM24.031 20.2004C22.418 21.5994 21.2532 23.4428 20.682 25.5001H18.9169V15.3228C19.7426 15.0308 20.4581 14.4909 20.9652 13.7768C21.4724 13.0627 21.7466 12.2093 21.7502 11.3335C21.7502 10.9577 21.6009 10.5974 21.3353 10.3317C21.0696 10.066 20.7092 9.91679 20.3335 9.91679C19.9578 9.91679 19.5975 10.066 19.3318 10.3317C19.0661 10.5974 18.9169 10.9577 18.9169 11.3335C18.9169 11.7092 18.7676 12.0695 18.5019 12.3352C18.2362 12.6009 17.8759 12.7501 17.5002 12.7501C17.1245 12.7501 16.7641 12.6009 16.4984 12.3352C16.2328 12.0695 16.0835 11.7092 16.0835 11.3335C16.0835 10.9577 15.9343 10.5974 15.6686 10.3317C15.4029 10.066 15.0426 9.91679 14.6669 9.91679C14.2911 9.91679 13.9308 10.066 13.6651 10.3317C13.3994 10.5974 13.2502 10.9577 13.2502 11.3335C13.2538 12.2093 13.528 13.0627 14.0351 13.7768C14.5423 14.4909 15.2577 15.0308 16.0835 15.3228V25.5001H14.2107C13.5718 23.3882 12.3734 21.4884 10.7427 20.002C9.35854 18.7123 8.37221 17.0535 7.9001 15.2215C7.42799 13.3894 7.4898 11.4606 8.07823 9.66249C8.66666 7.86443 9.75717 6.2722 11.221 5.07372C12.6849 3.87524 14.4611 3.12052 16.3399 2.89863C16.7294 2.85515 17.121 2.83339 17.5129 2.83346C19.9462 2.82623 22.2951 3.72401 24.1033 5.35229C25.1512 6.28672 25.9885 7.43322 26.5597 8.71578C27.1309 9.99834 27.423 11.3877 27.4165 12.7917C27.4101 14.1957 27.1053 15.5823 26.5224 16.8595C25.9395 18.1368 25.0917 19.2756 24.0353 20.2004H24.031Z" fill="url(#paint0_linear_604_29963)"/>
</g>
<defs>
<linearGradient id="paint0_linear_604_29963" x1="5.63769" y1="-6.29453" x2="41.5053" y2="7.83224" gradientUnits="userSpaceOnUse">
<stop offset="0.148235" stop-color="#DEB88C"/>
<stop offset="0.863404" stop-color="#C28456"/>
</linearGradient>
<clipPath id="clip0_604_29963">
<rect width="34" height="34" fill="white" transform="translate(0.5)"/>
</clipPath>
</defs>
</svg>
