<svg width="35" height="34" viewBox="0 0 35 34" fill="none" xmlns="http://www.w3.org/2000/svg">
<path d="M23.8753 7.08355C22.628 7.08256 21.4039 7.42042 20.3337 8.06105C19.5577 6.27999 18.195 4.8185 16.4726 3.91992C14.7501 3.02135 12.7719 2.73993 10.8672 3.12253C8.96245 3.50512 7.24629 4.52865 6.00444 6.02266C4.76259 7.51667 4.07 9.391 4.04199 11.3335V17.0002C4.04403 19.0075 4.75634 20.9492 6.05279 22.4816C7.34923 24.014 9.14616 25.0382 11.1253 25.3727V29.7502C11.1253 30.1259 11.2746 30.4863 11.5403 30.752C11.8059 31.0176 12.1663 31.1669 12.542 31.1669C12.9177 31.1669 13.278 31.0176 13.5437 30.752C13.8094 30.4863 13.9587 30.1259 13.9587 29.7502V25.3727C15.4019 25.1223 16.7573 24.5079 17.897 23.5877C18.4028 24.3995 19.0677 25.1004 19.8517 25.6482C20.6357 26.196 21.5225 26.5794 22.4587 26.7752V29.7502C22.4587 30.1259 22.6079 30.4863 22.8736 30.752C23.1393 31.0176 23.4996 31.1669 23.8753 31.1669C24.251 31.1669 24.6114 31.0176 24.8771 30.752C25.1427 30.4863 25.292 30.1259 25.292 29.7502V26.7752C26.8919 26.4486 28.3299 25.5793 29.3625 24.3143C30.3951 23.0494 30.959 21.4665 30.9587 19.8335V14.1669C30.9587 12.2883 30.2124 10.4866 28.884 9.15821C27.5556 7.82982 25.7539 7.08355 23.8753 7.08355ZM16.792 14.1669V19.8335C16.8055 20.1041 16.8339 20.3736 16.877 20.6411C16.1193 21.5434 15.0992 22.1872 13.9587 22.4827V18.4169C13.9587 18.0412 13.8094 17.6808 13.5437 17.4151C13.278 17.1495 12.9177 17.0002 12.542 17.0002C12.1663 17.0002 11.8059 17.1495 11.5403 17.4151C11.2746 17.6808 11.1253 18.0412 11.1253 18.4169V22.4686C9.91198 22.1553 8.83671 21.4486 8.06772 20.4592C7.29873 19.4698 6.87939 18.2533 6.87532 17.0002V11.3335C6.87163 10.2109 7.20146 9.11251 7.82298 8.17764C8.4445 7.24276 9.3297 6.51356 10.3663 6.08254C11.4029 5.65151 12.5441 5.53809 13.6452 5.75667C14.7464 5.97524 15.7578 6.51595 16.5512 7.31021C17.3181 8.08745 17.8402 9.07255 18.0528 10.1435C17.2339 11.3256 16.7941 12.7289 16.792 14.1669ZM28.1253 19.8335C28.1229 20.7104 27.8492 21.565 27.342 22.2802C26.8347 22.9955 26.1187 23.5363 25.292 23.8286V18.4169C25.292 18.0412 25.1427 17.6808 24.8771 17.4151C24.6114 17.1495 24.251 17.0002 23.8753 17.0002C23.4996 17.0002 23.1393 17.1495 22.8736 17.4151C22.6079 17.6808 22.4587 18.0412 22.4587 18.4169V23.8286C21.632 23.5363 20.9159 22.9955 20.4087 22.2802C19.9014 21.565 19.6278 20.7104 19.6253 19.8335V14.1669C19.6253 13.0397 20.0731 11.9587 20.8701 11.1617C21.6671 10.3646 22.7482 9.91688 23.8753 9.91688C25.0025 9.91688 26.0835 10.3646 26.8805 11.1617C27.6776 11.9587 28.1253 13.0397 28.1253 14.1669V19.8335Z" fill="url(#paint0_linear_604_30015)"/>
<defs>
<linearGradient id="paint0_linear_604_30015" x1="4.98644" y1="-2.26357" x2="39.9358" y2="15.2442" gradientUnits="userSpaceOnUse">
<stop offset="0.148235" stop-color="#DEB88C"/>
<stop offset="0.863404" stop-color="#C28456"/>
</linearGradient>
</defs>
</svg>
