<svg width="35" height="34" viewBox="0 0 35 34" fill="none" xmlns="http://www.w3.org/2000/svg">
<path d="M17.5 20.2158L15.5733 18.4166C13.3457 16.35 10.5732 14.9638 7.58333 14.4216V24.2675C11.2808 24.7491 14.6667 26.1658 17.5 28.2625C20.3333 26.1658 23.7192 24.7491 27.4167 24.2675V14.4216C24.3567 14.9741 21.6225 16.3908 19.4267 18.4166M27.4167 11.5458C28.3375 11.4041 29.2867 11.3333 30.25 11.3333V26.9166C25.2917 26.9166 20.8433 28.8291 17.5 31.9316C14.1567 28.8291 9.70833 26.9166 4.75 26.9166V11.3333C5.71333 11.3333 6.6625 11.4041 7.58333 11.5458C11.3942 12.1266 14.8083 13.855 17.5 16.3483C20.1917 13.855 23.6058 12.1266 27.4167 11.5458ZM17.5 8.49996C17.8825 8.49996 18.2083 8.35829 18.5058 8.08913C18.775 7.79163 18.9167 7.46579 18.9167 7.08329C18.9167 6.70079 18.775 6.37496 18.5058 6.07746C18.2083 5.82246 17.8825 5.66663 17.5 5.66663C17.1175 5.66663 16.7917 5.82246 16.4942 6.07746C16.2392 6.37496 16.0833 6.71496 16.0833 7.08329C16.0833 7.45163 16.2392 7.79163 16.4942 8.08913C16.7917 8.35829 17.1317 8.49996 17.5 8.49996ZM20.5033 10.0866C19.7068 10.8832 18.6265 11.3306 17.5 11.3306C16.3735 11.3306 15.2932 10.8832 14.4967 10.0866C13.7001 9.29009 13.2526 8.20976 13.2526 7.08329C13.2526 5.95682 13.7001 4.87649 14.4967 4.07996C14.8911 3.68556 15.3593 3.3727 15.8746 3.15925C16.3899 2.9458 16.9422 2.83594 17.5 2.83594C18.0578 2.83594 18.6101 2.9458 19.1254 3.15925C19.6407 3.3727 20.1089 3.68556 20.5033 4.07996C20.8977 4.47436 21.2106 4.94259 21.424 5.4579C21.6375 5.97321 21.7474 6.52552 21.7474 7.08329C21.7474 7.64106 21.6375 8.19337 21.424 8.70868C21.2106 9.224 20.8977 9.69222 20.5033 10.0866Z" fill="url(#paint0_linear_604_29999)"/>
<defs>
<linearGradient id="paint0_linear_604_29999" x1="5.64474" y1="-2.54741" x2="39.8261" y2="13.1811" gradientUnits="userSpaceOnUse">
<stop offset="0.148235" stop-color="#DEB88C"/>
<stop offset="0.863404" stop-color="#C28456"/>
</linearGradient>
</defs>
</svg>
