<svg width="35" height="34" viewBox="0 0 35 34" fill="none" xmlns="http://www.w3.org/2000/svg">
<path d="M19.6245 7.79167C18.8454 7.79167 18.1781 7.514 17.6228 6.95867C17.0674 6.40334 16.7903 5.73656 16.7912 4.95834C16.7912 4.17917 17.0689 3.51192 17.6242 2.95659C18.1795 2.40125 18.8463 2.12406 19.6245 2.125C20.4037 2.125 21.071 2.40267 21.6263 2.958C22.1816 3.51334 22.4588 4.18011 22.4579 4.95834C22.4579 5.7375 22.1802 6.40475 21.6249 6.96009C21.0695 7.51542 20.4028 7.79261 19.6245 7.79167ZM20.3329 32.5833C19.9315 32.5833 19.5948 32.4473 19.3228 32.1753C19.0508 31.9033 18.9153 31.5671 18.9162 31.1667V24.0833L15.9412 21.25L15.1266 24.7917C14.9377 25.5472 14.5245 26.1318 13.887 26.5455C13.2495 26.9592 12.553 27.0829 11.7974 26.9167L6.1662 25.7833C5.76481 25.7125 5.45172 25.5118 5.22695 25.1813C5.00217 24.8507 4.93748 24.4847 5.03286 24.0833C5.1037 23.6819 5.30439 23.3689 5.63495 23.1441C5.9655 22.9193 6.33148 22.8546 6.73286 22.95L12.1162 24.0833L14.3829 12.6083L11.8329 13.6V17C11.8329 17.4014 11.6969 17.7381 11.4249 18.0101C11.1529 18.2821 10.8166 18.4176 10.4162 18.4167C10.0148 18.4167 9.67812 18.2807 9.40612 18.0087C9.13412 17.7367 8.99859 17.4004 8.99953 17V13.6354C8.99953 13.0688 9.153 12.5432 9.45995 12.0587C9.76689 11.5742 10.1801 11.2261 10.6995 11.0146L14.5954 9.35C15.4218 8.99584 16.03 8.76539 16.42 8.65867C16.8101 8.55195 17.1699 8.49906 17.4995 8.5C17.9954 8.5 18.4558 8.62986 18.8808 8.88959C19.3058 9.14931 19.6481 9.49167 19.9079 9.91667L21.3245 12.1833C21.844 13.0097 22.523 13.7181 23.3617 14.3083C24.2004 14.8986 25.1505 15.2882 26.212 15.4771C26.5662 15.5243 26.8557 15.6778 27.0805 15.9375C27.3052 16.1972 27.4171 16.4924 27.4162 16.8229C27.4162 17.2715 27.2566 17.6493 26.9374 17.9563C26.6181 18.2632 26.2465 18.3813 25.8225 18.3104C24.5711 18.1215 23.4141 17.7258 22.3516 17.1233C21.2891 16.5207 20.3801 15.7713 19.6245 14.875L18.7745 19.125L20.8641 21.1083C21.1475 21.3917 21.3661 21.7048 21.52 22.0476C21.674 22.3904 21.7505 22.7621 21.7495 23.1625V31.1667C21.7495 31.5681 21.6135 31.9048 21.3415 32.1768C21.0695 32.4488 20.7333 32.5843 20.3329 32.5833Z" fill="url(#paint0_linear_604_30019)"/>
<defs>
<linearGradient id="paint0_linear_604_30019" x1="5.77711" y1="-3.51046" x2="37.4672" y2="8.74008" gradientUnits="userSpaceOnUse">
<stop offset="0.148235" stop-color="#DEB88C"/>
<stop offset="0.863404" stop-color="#C28456"/>
</linearGradient>
</defs>
</svg>
