<svg width="35" height="34" viewBox="0 0 35 34" fill="none" xmlns="http://www.w3.org/2000/svg">
<path d="M28.8337 24.0835V16.2238C28.8337 15.4673 28.8337 15.0891 28.7416 14.7363C28.6601 14.4245 28.5259 14.1289 28.3449 13.8623C28.1395 13.5605 27.8562 13.3098 27.2852 12.8125L20.4852 6.86251C19.4284 5.93743 18.8986 5.47418 18.3036 5.29852C17.7794 5.14268 17.2212 5.14268 16.6957 5.29852C16.1007 5.47418 15.5737 5.93602 14.5168 6.85968L7.71541 12.8125C7.14591 13.3112 6.86116 13.5605 6.65716 13.8608C6.47554 14.1279 6.34091 14.424 6.25908 14.7363C6.16699 15.0877 6.16699 15.4673 6.16699 16.2238V24.0835C6.16699 25.4038 6.16699 26.064 6.38233 26.5839C6.52456 26.9278 6.73313 27.2403 6.99614 27.5035C7.25914 27.7668 7.57143 27.9756 7.91516 28.1182C8.43649 28.3335 9.09666 28.3335 10.417 28.3335C11.7373 28.3335 12.3975 28.3335 12.9188 28.1182C13.2626 27.9756 13.5748 27.7668 13.8378 27.5035C14.1009 27.2403 14.3094 26.9278 14.4517 26.5839C14.667 26.064 14.667 25.4038 14.667 24.0835V22.6668C14.667 21.9154 14.9655 21.1947 15.4969 20.6634C16.0282 20.132 16.7489 19.8335 17.5003 19.8335C18.2518 19.8335 18.9724 20.132 19.5038 20.6634C20.0351 21.1947 20.3337 21.9154 20.3337 22.6668V24.0835C20.3337 25.4038 20.3337 26.064 20.549 26.5839C20.6912 26.9278 20.8998 27.2403 21.1628 27.5035C21.4258 27.7668 21.7381 27.9756 22.0818 28.1182C22.6032 28.3335 23.2633 28.3335 24.5837 28.3335C25.904 28.3335 26.5642 28.3335 27.0855 28.1182C27.4292 27.9756 27.7415 27.7668 28.0045 27.5035C28.2675 27.2403 28.4761 26.9278 28.6183 26.5839C28.8337 26.064 28.8337 25.4038 28.8337 24.0835Z" stroke="url(#paint0_linear_604_29977)" stroke-width="2.5" stroke-linecap="round" stroke-linejoin="round"/>
<defs>
<linearGradient id="paint0_linear_604_29977" x1="6.96231" y1="0.898035" x2="36.0842" y2="15.8676" gradientUnits="userSpaceOnUse">
<stop offset="0.148235" stop-color="#DEB88C"/>
<stop offset="0.863404" stop-color="#C28456"/>
</linearGradient>
</defs>
</svg>
