<svg width="35" height="34" viewBox="0 0 35 34" fill="none" xmlns="http://www.w3.org/2000/svg">
<path d="M8.99963 8.5C8.99963 8.12428 9.14889 7.76394 9.41456 7.49827C9.68024 7.23259 10.0406 7.08333 10.4163 7.08333C10.792 7.08333 11.1524 7.23259 11.418 7.49827C11.6837 7.76394 11.833 8.12428 11.833 8.5V17.0368C12.7283 17.1218 13.6746 17.3088 14.6663 17.6247V15.5833H23.1663V20.5204C24.1318 20.5074 25.0887 20.3375 25.9996 20.0175V8.5C25.9996 7.37283 25.5519 6.29183 24.7548 5.4948C23.9578 4.69777 22.8768 4.25 21.7496 4.25C20.6225 4.25 19.5415 4.69777 18.7444 5.4948C17.9474 6.29183 17.4996 7.37283 17.4996 8.5C17.4996 8.87572 17.6489 9.23606 17.9146 9.50173C18.1802 9.76741 18.5406 9.91667 18.9163 9.91667C19.292 9.91667 19.6524 9.76741 19.918 9.50173C20.1837 9.23606 20.333 8.87572 20.333 8.5C20.333 8.12428 20.4822 7.76394 20.7479 7.49827C21.0136 7.23259 21.3739 7.08333 21.7496 7.08333C22.1254 7.08333 22.4857 7.23259 22.7514 7.49827C23.017 7.76394 23.1663 8.12428 23.1663 8.5V12.75H14.6663V8.5C14.6663 7.37283 14.2185 6.29183 13.4215 5.4948C12.6245 4.69777 11.5435 4.25 10.4163 4.25C9.28913 4.25 8.20812 4.69777 7.4111 5.4948C6.61407 6.29183 6.1663 7.37283 6.1663 8.5C6.1663 8.87572 6.31555 9.23606 6.58123 9.50173C6.84691 9.76741 7.20724 9.91667 7.58297 9.91667C7.95869 9.91667 8.31902 9.76741 8.5847 9.50173C8.85038 9.23606 8.99963 8.87572 8.99963 8.5ZM9.8383 21.2854C8.38763 21.4639 7.42997 22.0603 7.0248 22.3706C6.72572 22.5983 6.34845 22.6978 5.97597 22.6473C5.60349 22.5969 5.26632 22.4005 5.03863 22.1014C4.81094 21.8023 4.71139 21.4251 4.76187 21.0526C4.81235 20.6801 5.00872 20.3429 5.3078 20.1152C6.0048 19.5854 7.42288 18.7283 9.49122 18.4719C11.5808 18.2155 14.2172 18.5852 17.3013 20.3377C22.6676 23.3892 26.9856 21.2627 28.1105 20.5969C28.4332 20.413 28.8153 20.3632 29.1744 20.4583C29.5335 20.5533 29.8409 20.7856 30.0304 21.1052C30.2199 21.4247 30.2763 21.8058 30.1874 22.1665C30.0986 22.5272 29.8716 22.8386 29.5555 23.0336C28.0297 23.9374 22.5444 26.5781 15.9002 22.8012C13.2992 21.3222 11.2705 21.1083 9.8383 21.2854ZM7.0248 28.0358C7.43138 27.7256 8.38763 27.1292 9.8383 26.9507C11.2691 26.7736 13.2992 26.9875 15.9016 28.4665C22.5458 32.2433 28.0283 29.6027 29.554 28.7003C29.7184 28.6077 29.8626 28.4833 29.9782 28.3343C30.0939 28.1854 30.1786 28.0148 30.2274 27.8326C30.2763 27.6505 30.2882 27.4604 30.2626 27.2735C30.2371 27.0867 30.1744 26.9068 30.0784 26.7445C29.9824 26.5822 29.8549 26.4407 29.7035 26.3283C29.5521 26.2158 29.3797 26.1348 29.1966 26.0899C29.0134 26.045 28.8231 26.037 28.6368 26.0666C28.4506 26.0962 28.2721 26.1627 28.1119 26.2622C26.9856 26.928 22.6676 29.0544 17.3013 26.0029C14.2172 24.2505 11.5808 23.8807 9.49122 24.1386C7.42288 24.3936 6.00622 25.2507 5.3078 25.7819C5.02048 26.0135 4.8349 26.3481 4.79053 26.7145C4.74617 27.0809 4.84653 27.4501 5.07026 27.7436C5.29399 28.0371 5.62343 28.2318 5.98846 28.2861C6.3535 28.3404 6.72532 28.2501 7.0248 28.0344V28.0358Z" fill="url(#paint0_linear_604_30003)"/>
<defs>
<linearGradient id="paint0_linear_604_30003" x1="5.6447" y1="-0.595895" x2="38.5028" y2="16.2182" gradientUnits="userSpaceOnUse">
<stop offset="0.148235" stop-color="#DEB88C"/>
<stop offset="0.863404" stop-color="#C28456"/>
</linearGradient>
</defs>
</svg>
