<svg width="35" height="34" viewBox="0 0 35 34" fill="none" xmlns="http://www.w3.org/2000/svg">
<path fill-rule="evenodd" clip-rule="evenodd" d="M24.5836 5.3125C24.2581 5.3125 23.9357 5.37663 23.6349 5.50122C23.3341 5.62581 23.0608 5.80842 22.8306 6.03863C22.6004 6.26884 22.4178 6.54214 22.2932 6.84293C22.1686 7.14372 22.1045 7.4661 22.1045 7.79167C22.1045 8.11724 22.1686 8.43962 22.2932 8.7404C22.4178 9.04119 22.6004 9.31449 22.8306 9.5447C23.0608 9.77491 23.3341 9.95753 23.6349 10.0821C23.9357 10.2067 24.2581 10.2708 24.5836 10.2708C25.2412 10.2708 25.8717 10.0096 26.3367 9.5447C26.8016 9.07977 27.0628 8.44918 27.0628 7.79167C27.0628 7.13415 26.8016 6.50357 26.3367 6.03863C25.8717 5.5737 25.2412 5.3125 24.5836 5.3125ZM19.9795 7.79167C19.9795 6.57057 20.4646 5.39948 21.328 4.53603C22.1915 3.67258 23.3625 3.1875 24.5836 3.1875C25.8047 3.1875 26.9758 3.67258 27.8393 4.53603C28.7027 5.39948 29.1878 6.57057 29.1878 7.79167C29.1878 9.01277 28.7027 10.1839 27.8393 11.0473C26.9758 11.9108 25.8047 12.3958 24.5836 12.3958C23.3625 12.3958 22.1915 11.9108 21.328 11.0473C20.4646 10.1839 19.9795 9.01277 19.9795 7.79167ZM12.457 6.55917C12.2915 6.36886 12.0571 6.2521 11.8055 6.23457C11.554 6.21703 11.3057 6.30016 11.1154 6.46567C10.9251 6.63117 10.8083 6.8655 10.7908 7.11709C10.7733 7.36869 10.8564 7.61695 11.0219 7.80725L12.4216 9.43925C12.7234 9.79139 12.9448 10.2052 13.0703 10.6517C13.1957 11.0982 13.2222 11.5668 13.1479 12.0246C13.0736 12.4824 12.9002 12.9185 12.6399 13.3025C12.3797 13.6864 12.0388 14.0089 11.641 14.2474L6.71522 17.2026C6.59556 17.276 6.46252 17.325 6.3238 17.3468C6.18507 17.3685 6.04342 17.3625 5.90702 17.3292C5.77063 17.2958 5.6422 17.2358 5.52915 17.1525C5.41611 17.0692 5.32069 16.9643 5.24842 16.8439C5.17615 16.7235 5.12846 16.59 5.10811 16.4511C5.08775 16.3122 5.09514 16.1706 5.12983 16.0345C5.16453 15.8985 5.22585 15.7706 5.31025 15.6584C5.39465 15.5462 5.50046 15.4518 5.62156 15.3807L10.5459 12.4242C10.6784 12.3447 10.7921 12.2372 10.8788 12.1093C10.9656 11.9814 11.0234 11.8361 11.0482 11.6836C11.073 11.531 11.0642 11.3749 11.0225 11.2261C10.9808 11.0772 10.9071 10.9393 10.8066 10.8219L9.40689 9.1885C8.88562 8.5712 8.62819 7.77357 8.69024 6.96801C8.75229 6.16245 9.12883 5.41365 9.73849 4.88346C10.3481 4.35327 11.1419 4.08427 11.9483 4.1346C12.7547 4.18492 13.5089 4.55054 14.0479 5.15242L23.2562 15.5876C23.3504 15.6919 23.423 15.8139 23.4697 15.9465C23.5164 16.0791 23.5364 16.2197 23.5284 16.36C23.5204 16.5004 23.4846 16.6377 23.4232 16.7642C23.3617 16.8906 23.2758 17.0036 23.1703 17.0965C23.0649 17.1895 22.942 17.2607 22.8089 17.3058C22.6758 17.351 22.535 17.3693 22.3948 17.3596C22.2545 17.35 22.1176 17.3126 21.9919 17.2497C21.8662 17.1867 21.7542 17.0994 21.6625 16.9929L12.4541 6.55775L12.457 6.55917ZM6.97447 18.2268C7.94772 16.7053 10.0302 16.7549 11.0658 18.0795C12.4683 19.8744 14.4261 21.6042 17.5003 21.6042C20.6297 21.6042 22.5578 20.2173 23.8824 18.445C24.9024 17.0836 27.1209 16.8597 28.1891 18.479C29.0759 19.8177 30.0364 20.8689 31.9106 21.3095C32.0471 21.3409 32.176 21.3989 32.2899 21.4803C32.4039 21.5616 32.5006 21.6647 32.5746 21.7836C32.6486 21.9025 32.6983 22.0348 32.721 22.1729C32.7436 22.3111 32.7388 22.4524 32.7067 22.5886C32.6746 22.7249 32.6158 22.8535 32.5339 22.967C32.4519 23.0805 32.3483 23.1767 32.2291 23.25C32.1098 23.3234 31.9772 23.3724 31.8389 23.3943C31.7007 23.4163 31.5594 23.4107 31.4233 23.3778C28.7996 22.7602 27.4467 21.2061 26.4168 19.6506C26.3786 19.5912 26.3253 19.5431 26.2623 19.5112C26.1992 19.4793 26.1289 19.4648 26.0584 19.4692C25.9656 19.4721 25.8746 19.496 25.7923 19.5392C25.7101 19.5824 25.6388 19.6437 25.5838 19.7186C23.932 21.93 21.4103 23.7292 17.5003 23.7292C13.4741 23.7292 10.9681 21.4058 9.39131 19.3871C9.3513 19.3322 9.29888 19.2875 9.23831 19.2567C9.17774 19.2259 9.11075 19.2099 9.04281 19.21C8.98652 19.2106 8.93135 19.2259 8.88269 19.2542C8.83403 19.2825 8.79353 19.3229 8.76514 19.3715C7.71681 21.0092 6.36389 22.7219 3.57731 23.3778C3.44121 23.4107 3.29996 23.4163 3.16168 23.3943C3.0234 23.3724 2.89082 23.3234 2.77156 23.25C2.6523 23.1767 2.54871 23.0805 2.46674 22.967C2.38478 22.8535 2.32605 22.7249 2.29394 22.5886C2.26184 22.4524 2.25698 22.3111 2.27965 22.1729C2.30232 22.0348 2.35207 21.9025 2.42604 21.7836C2.50002 21.6647 2.59675 21.5616 2.71069 21.4803C2.82463 21.3989 2.95353 21.3409 3.08997 21.3095C5.07472 20.842 6.03664 19.6945 6.97447 18.2268ZM6.97447 25.3102C7.94772 23.7887 10.0302 23.8382 11.0658 25.1628C12.4683 26.9577 14.4261 28.6875 17.5003 28.6875C20.6297 28.6875 22.5578 27.3006 23.8824 25.5283C24.9024 24.1655 27.1209 23.9431 28.1891 25.5623C29.0759 26.9011 30.0364 27.9522 31.9106 28.3928C32.0471 28.4242 32.176 28.4823 32.2899 28.5636C32.4039 28.645 32.5006 28.748 32.5746 28.8669C32.6486 28.9858 32.6983 29.1181 32.721 29.2563C32.7436 29.3944 32.7388 29.5357 32.7067 29.672C32.6746 29.8082 32.6158 29.9368 32.5339 30.0503C32.4519 30.1638 32.3483 30.26 32.2291 30.3334C32.1098 30.4067 31.9772 30.4557 31.8389 30.4777C31.7007 30.4996 31.5594 30.494 31.4233 30.4612C28.7996 29.8435 27.4467 28.2894 26.4168 26.7339C26.3786 26.6745 26.3253 26.6264 26.2623 26.5945C26.1992 26.5626 26.1289 26.5482 26.0584 26.5526C25.9654 26.5556 25.8744 26.5797 25.7921 26.6232C25.7099 26.6666 25.6387 26.7282 25.5838 26.8033C23.932 29.0133 21.4103 30.8125 17.5003 30.8125C13.4741 30.8125 10.9681 28.4892 9.39131 26.4704C9.3513 26.4155 9.29888 26.3708 9.23831 26.3401C9.17774 26.3093 9.11075 26.2933 9.04281 26.2933C8.98652 26.294 8.93135 26.3092 8.88269 26.3375C8.83403 26.3658 8.79353 26.4062 8.76514 26.4548C7.71681 28.0925 6.36389 29.8053 3.57731 30.4612C3.44121 30.494 3.29996 30.4996 3.16168 30.4777C3.0234 30.4557 2.89082 30.4067 2.77156 30.3334C2.6523 30.26 2.54871 30.1638 2.46674 30.0503C2.38478 29.9368 2.32605 29.8082 2.29394 29.672C2.26184 29.5357 2.25698 29.3944 2.27965 29.2563C2.30232 29.1181 2.35207 28.9858 2.42604 28.8669C2.50002 28.748 2.59675 28.645 2.71069 28.5636C2.82463 28.4823 2.95353 28.4242 3.08997 28.3928C5.07472 27.9253 6.03664 26.7778 6.97447 25.3102Z" fill="url(#paint0_linear_604_30007)"/>
<defs>
<linearGradient id="paint0_linear_604_30007" x1="3.33473" y1="-1.92373" x2="40.3965" y2="19.5385" gradientUnits="userSpaceOnUse">
<stop offset="0.148235" stop-color="#DEB88C"/>
<stop offset="0.863404" stop-color="#C28456"/>
</linearGradient>
</defs>
</svg>
