<svg width="35" height="34" viewBox="0 0 35 34" fill="none" xmlns="http://www.w3.org/2000/svg">
<path d="M17.5 1.41699L4.75 7.08366V15.5837C4.75 23.4462 10.19 30.7987 17.5 32.5837C24.81 30.7987 30.25 23.4462 30.25 15.5837V7.08366L17.5 1.41699ZM17.5 4.50533L27.4167 8.92532V15.8953C27.4167 18.3037 26.7083 20.7545 25.5042 22.9078C23.1667 21.1653 19.285 20.542 17.5 20.542C15.715 20.542 11.8333 21.1653 9.49583 22.9078C8.29167 20.7545 7.58333 18.3037 7.58333 15.8953V8.92532L17.5 4.50533ZM17.5 8.50032C16.185 8.50032 14.9238 9.02272 13.9939 9.95259C13.0641 10.8825 12.5417 12.1436 12.5417 13.4587C12.5417 14.7737 13.0641 16.0349 13.9939 16.9647C14.9238 17.8946 16.185 18.417 17.5 18.417C18.815 18.417 20.0762 17.8946 21.0061 16.9647C21.9359 16.0349 22.4583 14.7737 22.4583 13.4587C22.4583 12.1436 21.9359 10.8825 21.0061 9.95259C20.0762 9.02272 18.815 8.50032 17.5 8.50032ZM17.5 11.3337C18.0636 11.3337 18.6041 11.5575 19.0026 11.9561C19.4011 12.3546 19.625 12.8951 19.625 13.4587C19.625 14.0222 19.4011 14.5627 19.0026 14.9613C18.6041 15.3598 18.0636 15.5837 17.5 15.5837C16.9364 15.5837 16.3959 15.3598 15.9974 14.9613C15.5989 14.5627 15.375 14.0222 15.375 13.4587C15.375 12.8951 15.5989 12.3546 15.9974 11.9561C16.3959 11.5575 16.9364 11.3337 17.5 11.3337ZM17.5 23.3753C19.7242 23.3753 22.6567 24.2395 23.9175 25.2737C22.1608 27.4553 19.9083 29.1128 17.5 29.7503C15.0917 29.1128 12.8392 27.4553 11.0825 25.2737C12.3575 24.2395 15.2758 23.3753 17.5 23.3753Z" fill="url(#paint0_linear_604_29981)"/>
<defs>
<linearGradient id="paint0_linear_604_29981" x1="5.64474" y1="-4.34953" x2="40.6111" y2="10.6711" gradientUnits="userSpaceOnUse">
<stop offset="0.148235" stop-color="#DEB88C"/>
<stop offset="0.863404" stop-color="#C28456"/>
</linearGradient>
</defs>
</svg>
