<svg width="35" height="34" viewBox="0 0 35 34" fill="none" xmlns="http://www.w3.org/2000/svg">
<path d="M31.3125 25.5003H27.0625V22.3128H30.25C30.4114 22.3128 30.5708 22.276 30.7159 22.2052C30.861 22.1344 30.988 22.0314 31.0873 21.9042C31.1867 21.7769 31.2557 21.6287 31.2892 21.4707C31.3227 21.3128 31.3198 21.1493 31.2806 20.9927L27.0306 3.99268C26.973 3.76294 26.8404 3.55902 26.6536 3.41332C26.4669 3.26761 26.2368 3.18848 26 3.18848C25.7632 3.18848 25.5331 3.26761 25.3464 3.41332C25.1596 3.55902 25.027 3.76294 24.9694 3.99268L20.7194 20.9927C20.6802 21.1493 20.6773 21.3128 20.7108 21.4707C20.7443 21.6287 20.8133 21.7769 20.9127 21.9042C21.012 22.0314 21.139 22.1344 21.2841 22.2052C21.4292 22.276 21.5886 22.3128 21.75 22.3128H24.9375V25.5003H16.4375V23.3753H17.5C17.7818 23.3753 18.052 23.2634 18.2513 23.0641C18.4506 22.8649 18.5625 22.5946 18.5625 22.3128C18.5625 22.031 18.4506 21.7608 18.2513 21.5615C18.052 21.3623 17.7818 21.2503 17.5 21.2503H16.4375V19.1253H17.5C17.7818 19.1253 18.052 19.0134 18.2513 18.8141C18.4506 18.6149 18.5625 18.3446 18.5625 18.0628C18.5625 17.781 18.4506 17.5108 18.2513 17.3115C18.052 17.1123 17.7818 17.0003 17.5 17.0003H5.8125C5.53071 17.0003 5.26046 17.1123 5.0612 17.3115C4.86194 17.5108 4.75 17.781 4.75 18.0628C4.75 18.3446 4.86194 18.6149 5.0612 18.8141C5.26046 19.0134 5.53071 19.1253 5.8125 19.1253H6.875V21.2503H5.8125C5.53071 21.2503 5.26046 21.3623 5.0612 21.5615C4.86194 21.7608 4.75 22.031 4.75 22.3128C4.75 22.5946 4.86194 22.8649 5.0612 23.0641C5.26046 23.2634 5.53071 23.3753 5.8125 23.3753H6.875V25.5003H3.6875C3.40571 25.5003 3.13546 25.6123 2.9362 25.8115C2.73694 26.0108 2.625 26.281 2.625 26.5628C2.625 26.8446 2.73694 27.1149 2.9362 27.3141C3.13546 27.5134 3.40571 27.6253 3.6875 27.6253H31.3125C31.5943 27.6253 31.8645 27.5134 32.0638 27.3141C32.2631 27.1149 32.375 26.8446 32.375 26.5628C32.375 26.281 32.2631 26.0108 32.0638 25.8115C31.8645 25.6123 31.5943 25.5003 31.3125 25.5003ZM26 8.63315L28.8887 20.1878H23.1113L26 8.63315ZM9 19.1253H14.3125V21.2503H9V19.1253ZM9 23.3753H14.3125V25.5003H9V23.3753ZM15.9062 12.7503C16.6417 12.7503 17.3607 12.5322 17.9723 12.1236C18.5838 11.715 19.0605 11.1342 19.3419 10.4547C19.6234 9.77518 19.697 9.02746 19.5535 8.30609C19.4101 7.58472 19.0559 6.92211 18.5358 6.40203C18.0157 5.88195 17.3531 5.52778 16.6317 5.38429C15.9104 5.2408 15.1627 5.31444 14.4831 5.59591C13.8036 5.87737 13.2228 6.35401 12.8142 6.96556C12.4056 7.5771 12.1875 8.29608 12.1875 9.03158C12.1875 10.0179 12.5793 10.9637 13.2767 11.6611C13.9741 12.3585 14.92 12.7503 15.9062 12.7503ZM15.9062 7.43783C16.2215 7.43783 16.5296 7.53131 16.7917 7.70643C17.0538 7.88155 17.2581 8.13046 17.3787 8.42168C17.4993 8.7129 17.5309 9.03335 17.4694 9.34251C17.4079 9.65167 17.2561 9.93565 17.0332 10.1585C16.8103 10.3814 16.5263 10.5332 16.2172 10.5947C15.908 10.6562 15.5876 10.6246 15.2963 10.504C15.0051 10.3834 14.7562 10.1791 14.5811 9.91702C14.406 9.65493 14.3125 9.3468 14.3125 9.03158C14.3125 8.6089 14.4804 8.20352 14.7793 7.90463C15.0782 7.60575 15.4836 7.43783 15.9062 7.43783Z" fill="url(#paint0_linear_604_29995)"/>
<defs>
<linearGradient id="paint0_linear_604_29995" x1="3.66886" y1="-1.33288" x2="37.9747" y2="20.595" gradientUnits="userSpaceOnUse">
<stop offset="0.148235" stop-color="#DEB88C"/>
<stop offset="0.863404" stop-color="#C28456"/>
</linearGradient>
</defs>
</svg>
