<svg width="30" height="30" viewBox="0 0 30 30" fill="none" xmlns="http://www.w3.org/2000/svg">
<path d="M26.6923 15.4414L17.9423 24.1914C17.8198 24.3139 17.6598 24.3739 17.4998 24.3739C17.3398 24.3739 17.1798 24.3127 17.0573 24.1914C16.8136 23.9477 16.8136 23.5514 17.0573 23.3077L24.7398 15.6252H3.74982C3.40482 15.6252 3.12482 15.3452 3.12482 15.0002C3.12482 14.6552 3.40482 14.3752 3.74982 14.3752H24.7411L17.0585 6.69266C16.8148 6.44891 16.8148 6.05266 17.0585 5.80891C17.3023 5.56516 17.6986 5.56516 17.9423 5.80891L26.6923 14.5589C26.9361 14.8027 26.9361 15.1977 26.6923 15.4414Z" fill="#41416E"/>
</svg>
