<svg width="24" height="24" viewBox="0 0 24 24" fill="none" xmlns="http://www.w3.org/2000/svg">
<path d="M22.0002 12.0002C22.0002 12.5532 21.5532 13.0002 21.0002 13.0002H5.41422L10.7072 18.2931C11.0982 18.6841 11.0982 19.3162 10.7072 19.7072C10.5122 19.9022 10.2562 20.0002 10.0002 20.0002C9.74422 20.0002 9.48825 19.9022 9.29325 19.7072L2.29325 12.7072C1.90225 12.3162 1.90225 11.6841 2.29325 11.2931L9.29325 4.29313C9.68425 3.90213 10.3162 3.90213 10.7072 4.29313C11.0982 4.68413 11.0982 5.31619 10.7072 5.70719L5.41422 11.0002H21.0002C21.5532 11.0002 22.0002 11.4472 22.0002 12.0002Z" fill="#061426"/>
</svg>
