<svg width="20" height="20" viewBox="0 0 20 20" fill="none" xmlns="http://www.w3.org/2000/svg">
<path d="M18.3332 5.20833C18.3332 5.66917 17.9598 6.04167 17.4998 6.04167H2.49984C2.03984 6.04167 1.6665 5.66917 1.6665 5.20833C1.6665 4.7475 2.03984 4.375 2.49984 4.375H5.46569C5.82485 4.375 6.14233 4.1466 6.2565 3.80493L6.51982 3.01493C6.74732 2.33327 7.38318 1.875 8.10068 1.875H11.8999C12.6182 1.875 13.254 2.33329 13.4807 3.01412L13.744 3.80575C13.8573 4.14575 14.1757 4.375 14.5349 4.375H17.4998C17.9598 4.375 18.3332 4.7475 18.3332 5.20833ZM16.0832 7.73336L15.5748 15.4C15.4665 16.9333 14.1832 18.125 12.6582 18.125H7.3415C5.8165 18.125 4.53317 16.9333 4.42484 15.4083L3.91651 7.73336C3.90818 7.62502 3.94985 7.50826 4.02485 7.42493C4.10818 7.34159 4.21651 7.29167 4.33318 7.29167H15.6665C15.7832 7.29167 15.8915 7.34159 15.9748 7.42493C16.0498 7.50826 16.0915 7.62502 16.0832 7.73336ZM9.1665 10.2083C9.1665 9.75 8.7915 9.375 8.33317 9.375C7.87484 9.375 7.49984 9.75 7.49984 10.2083V14.375C7.49984 14.8333 7.87484 15.2083 8.33317 15.2083C8.7915 15.2083 9.1665 14.8333 9.1665 14.375V10.2083ZM12.4998 10.2083C12.4998 9.75 12.1248 9.375 11.6665 9.375C11.2082 9.375 10.8332 9.75 10.8332 10.2083V14.375C10.8332 14.8333 11.2082 15.2083 11.6665 15.2083C12.1248 15.2083 12.4998 14.8333 12.4998 14.375V10.2083Z" fill="#061426"/>
</svg>
