<svg width="20" height="20" viewBox="0 0 20 20" fill="none" xmlns="http://www.w3.org/2000/svg">
<g clipPath="url(#clip0_604_30058)">
<path d="M16.111 12.223C15.4809 12.2235 14.8604 12.3773 14.3031 12.6711C13.7457 12.965 13.2682 13.39 12.9118 13.9096L7.48765 11.4605C7.87291 10.5301 7.8744 9.4852 7.49181 8.55379L12.9085 6.09212C13.4367 6.85609 14.2213 7.40542 15.1198 7.64049C16.0184 7.87556 16.9714 7.78079 17.8061 7.37337C18.6407 6.96595 19.3018 6.27287 19.6692 5.41984C20.0366 4.56682 20.0861 3.61035 19.8088 2.72393C19.5314 1.83752 18.9455 1.07987 18.1574 0.588418C17.3693 0.0969668 16.4311 -0.0957344 15.5131 0.0452685C14.5951 0.186272 13.758 0.651639 13.1537 1.35696C12.5494 2.06228 12.2179 2.96083 12.2193 3.88962C12.2228 4.10946 12.2451 4.32859 12.286 4.54462L6.52765 7.16129C5.9746 6.64314 5.28224 6.29782 4.53563 6.16776C3.78901 6.03769 3.02067 6.12855 2.32499 6.42917C1.62931 6.72979 1.03658 7.22707 0.619644 7.85992C0.202703 8.49278 -0.0202981 9.23364 -0.0219633 9.9915C-0.0236284 10.7493 0.196115 11.4912 0.610271 12.1259C1.02443 12.7605 1.61496 13.2604 2.30931 13.5641C3.00367 13.8678 3.7716 13.962 4.51878 13.8352C5.26595 13.7084 5.95983 13.3662 6.51515 12.8505L12.2885 15.4571C12.2484 15.673 12.2264 15.8918 12.2226 16.1113C12.2225 16.8806 12.4505 17.6326 12.8777 18.2723C13.305 18.912 13.9124 19.4106 14.6231 19.7051C15.3338 19.9995 16.1158 20.0766 16.8703 19.9266C17.6249 19.7766 18.3179 19.4061 18.8619 18.8622C19.4058 18.3182 19.7763 17.6252 19.9263 16.8707C20.0763 16.1162 19.9992 15.3341 19.7048 14.6234C19.4103 13.9127 18.9117 13.3053 18.272 12.8781C17.6323 12.4508 16.8803 12.2228 16.111 12.223ZM16.111 1.66712C16.5506 1.66696 16.9804 1.79716 17.346 2.04128C17.7116 2.28539 17.9966 2.63244 18.1649 3.03853C18.3332 3.44462 18.3774 3.89152 18.2917 4.3227C18.206 4.75388 17.9944 5.14997 17.6837 5.46087C17.3729 5.77178 16.9769 5.98353 16.5457 6.06936C16.1146 6.15518 15.6676 6.11122 15.2615 5.94302C14.8553 5.77483 14.5082 5.48997 14.2639 5.12446C14.0197 4.75896 13.8893 4.32923 13.8893 3.88962C13.8898 3.30046 14.1239 2.73554 14.5405 2.31886C14.957 1.90218 15.5218 1.66778 16.111 1.66712ZM3.88931 12.223C3.44971 12.2231 3.01993 12.0929 2.65433 11.8488C2.28873 11.6047 2.00374 11.2576 1.8354 10.8515C1.66705 10.4455 1.62292 9.99856 1.70858 9.56738C1.79425 9.1362 2.00585 8.74011 2.31664 8.4292C2.62743 8.1183 3.02344 7.90654 3.45459 7.82072C3.88573 7.7349 4.33264 7.77886 4.7388 7.94705C5.14496 8.11524 5.49212 8.40011 5.73636 8.76561C5.98061 9.13112 6.11098 9.56085 6.11098 10.0005C6.11032 10.5896 5.87607 11.1543 5.45959 11.571C5.04311 11.9876 4.47841 12.2221 3.88931 12.223ZM16.111 18.3338C15.6714 18.3338 15.2417 18.2034 14.8762 17.9592C14.5107 17.715 14.2259 17.3679 14.0577 16.9618C13.8894 16.5557 13.8454 16.1088 13.9312 15.6777C14.0169 15.2466 14.2286 14.8506 14.5394 14.5397C14.8503 14.2289 15.2463 14.0172 15.6774 13.9315C16.1085 13.8457 16.5554 13.8898 16.9615 14.058C17.3676 14.2262 17.7147 14.511 17.9589 14.8765C18.2031 15.242 18.3335 15.6717 18.3335 16.1113C18.333 16.7006 18.0987 17.2656 17.682 17.6823C17.2653 18.0991 16.7003 18.3333 16.111 18.3338Z" fill="#061426"/>
</g>
<defs>
<clipPath id="clip0_604_30058">
<rect width="20" height="20" fill="white"/>
</clipPath>
</defs>
</svg>
