<svg width="62" height="62" viewBox="0 0 62 62" fill="none" xmlns="http://www.w3.org/2000/svg">
<g id="4 - Filled / log-out">
<path id="log-out-Filled" d="M54.2498 28.4169C55.6784 28.4169 56.8332 29.5742 56.8332 31.0002V41.3336C56.8332 48.4558 51.0388 54.2502 43.9165 54.2502H18.0832C10.9609 54.2502 5.1665 48.4558 5.1665 41.3336L5.1665 31.0002C5.1665 29.5742 6.32125 28.4169 7.74984 28.4169C9.17842 28.4169 10.3332 29.5742 10.3332 31.0002L10.3332 41.3336C10.3332 45.6064 13.8103 49.0836 18.0832 49.0836H43.9165C48.1893 49.0836 51.6665 45.6064 51.6665 41.3336V31.0002C51.6665 29.5717 52.8213 28.4169 54.2498 28.4169ZM29.1733 8.50716L18.84 18.8405C17.8299 19.8506 17.8299 21.4832 18.84 22.4933C19.8501 23.5034 21.4829 23.5034 22.493 22.4933L28.4165 16.5697L28.4165 36.1669C28.4165 37.5929 29.5713 38.7502 30.9998 38.7502C32.4284 38.7502 33.5832 37.5929 33.5832 36.1669V16.5697L39.5067 22.4933C40.5168 23.5034 42.1496 23.5034 43.1597 22.4933C43.6634 21.9896 43.9165 21.3282 43.9165 20.6669C43.9165 20.0056 43.6634 19.3442 43.1597 18.8405L32.8263 8.50716C31.8163 7.49707 30.1808 7.49707 29.1733 8.50716Z" fill="#7A7B7C"/>
</g>
</svg>
