<svg width="71" height="71" viewBox="0 0 71 71" fill="none" xmlns="http://www.w3.org/2000/svg">
<g id="1 - Light / image">
<path id="image-Light" d="M50.2918 10.3555H20.7085C13.3689 10.3555 7.396 16.3283 7.396 23.668V47.3346C7.396 48.3434 7.52913 49.3168 7.74213 50.2605C7.7658 50.3966 7.8013 50.5237 7.86343 50.648C9.34851 56.3812 14.5167 60.6442 20.7085 60.6442H50.2918C57.6315 60.6442 63.6043 54.6714 63.6043 47.3317V23.6651C63.6043 16.3284 57.6315 10.3555 50.2918 10.3555ZM20.7085 13.3138H50.2918C56.0014 13.3138 60.646 17.9584 60.646 23.668V40.8055L47.5199 27.6795C45.7863 25.943 42.9611 25.943 41.2275 27.6795L26.6341 42.2937L23.8532 39.5129C22.1788 37.8384 19.2353 37.8384 17.5608 39.5129L10.3514 46.7222V23.668C10.3544 17.9584 14.9989 13.3138 20.7085 13.3138ZM50.2918 57.6888H20.7085C16.0698 57.6888 12.1826 54.6033 10.8691 50.3907L19.6553 41.6043C20.2115 41.0481 21.2055 41.0481 21.7647 41.6043L24.5454 44.3852C25.6933 45.533 27.563 45.533 28.7079 44.3852L43.322 29.771C43.9018 29.1911 44.8515 29.1911 45.4313 29.771L60.649 44.9886V47.3346C60.646 53.0442 55.9985 57.6888 50.2918 57.6888ZM20.7085 26.6263C20.7085 24.9933 22.0338 23.668 23.6668 23.668C25.2998 23.668 26.6252 24.9933 26.6252 26.6263C26.6252 28.2593 25.2998 29.5846 23.6668 29.5846C22.0309 29.5846 20.7085 28.2593 20.7085 26.6263Z" fill="#7A7B7C"/>
</g>
</svg>
