<svg width="12" height="13" viewBox="0 0 12 13" fill="none" xmlns="http://www.w3.org/2000/svg">
<g clipPath="url(#clip0_1_2761)">
<path d="M5.97885 12.5039L5.63031 12.2051C5.14982 11.8028 0.954346 8.17945 0.954346 5.52904C0.954346 2.75409 3.2039 0.504532 5.97885 0.504532C8.75381 0.504532 11.0034 2.75409 11.0034 5.52904C11.0034 8.17947 6.80788 11.8028 6.32938 12.2071L5.97885 12.5039ZM5.97885 1.59098C3.80495 1.59344 2.04328 3.35512 2.04081 5.52902C2.04081 7.19406 4.62203 9.85394 5.97885 11.0714C7.3357 9.85345 9.91689 7.19205 9.91689 5.52902C9.91443 3.35512 8.15277 1.59346 5.97885 1.59098Z" fill="#061426"/>
<path d="M5.97898 7.52054C4.87901 7.52054 3.9873 6.62884 3.9873 5.52887C3.9873 4.4289 4.87901 3.5372 5.97898 3.5372C7.07895 3.5372 7.97065 4.4289 7.97065 5.52887C7.97065 6.62884 7.07897 7.52054 5.97898 7.52054ZM5.97898 4.53301C5.42899 4.53301 4.98314 4.97887 4.98314 5.52885C4.98314 6.07883 5.42899 6.52469 5.97898 6.52469C6.52896 6.52469 6.97481 6.07883 6.97481 5.52885C6.97481 4.97887 6.52898 4.53301 5.97898 4.53301Z" fill="#061426"/>
</g>
<defs>
<clipPath id="clip0_1_2761">
<rect width="12" height="12" fill="white" transform="translate(0 0.5)"/>
</clipPath>
</defs>
</svg>
