<svg width="161" height="38" viewBox="0 0 161 38" fill="none" xmlns="http://www.w3.org/2000/svg">
<path d="M25.0174 20.751L25.0609 25.0948H11.7912C10.1596 25.0948 8.63689 24.7892 7.24466 24.1562C5.85243 23.545 4.65598 22.6937 3.63355 21.5804C2.63289 20.489 1.84976 19.2012 1.26241 17.695C0.696814 16.1889 0.414017 14.5518 0.414017 12.8056C0.414017 11.0593 0.696814 9.44405 1.26241 7.98157C1.84976 6.51909 2.63289 5.27489 3.63355 4.22714C4.65598 3.1794 5.85243 2.37176 7.24466 1.80423C8.63689 1.25853 10.1596 0.974763 11.7912 0.974763H21.428L25.0609 5.38403H11.7912C11.008 5.38403 10.2684 5.58048 9.59405 5.97339C8.91969 6.38812 8.33234 6.93382 7.83201 7.61049C7.33167 8.28716 6.94011 9.16028 6.67906 10.2299C6.39627 11.2994 6.24399 12.2599 6.24399 13.1112C6.24399 14.0061 6.39627 14.8792 6.65731 15.7524C6.94011 16.6255 7.33167 17.4331 7.83201 18.1534C8.33234 18.8956 8.98495 19.5068 9.81159 20.0088C10.6165 20.5109 11.4214 20.751 12.2045 20.751H25.0174ZM51.6438 9.61867C51.2305 10.7319 50.6214 11.6487 49.8383 12.4127C49.0551 13.1985 48.0762 13.7878 46.945 14.2244C45.8139 14.6609 44.5304 14.9011 43.0947 14.9011L51.8614 25.1166H45.9661L37.0906 14.9011H34.1974V25.0948H28.4327V10.8847H43.6385C44.5957 10.7974 45.357 10.5354 45.9226 10.0989C46.4665 9.66233 46.771 9.00749 46.8363 8.11253C46.8363 7.17393 46.5317 6.43178 45.9226 5.95156C45.2918 5.44951 44.5304 5.2094 43.6385 5.2094H31.3912L26.9752 0.931107H43.1164C44.5521 0.931107 45.8574 1.17122 46.9886 1.60778C48.1197 2.06617 49.0769 2.67735 49.86 3.48499C50.6432 4.2708 51.2305 5.2094 51.6438 6.32263C52.0354 7.43587 52.0354 8.52727 51.6438 9.61867ZM67.3282 0.931107C71.6137 0.931107 74.8115 1.91337 76.9433 3.87789C79.0969 5.84242 80.1628 8.942 80.1628 13.1985C80.1628 17.4549 79.0969 20.5764 76.9651 22.5409C74.8332 24.5054 71.6137 25.4877 67.3282 25.4877C63.021 25.4877 59.8232 24.5054 57.6913 22.5409C55.5595 20.5764 54.4936 17.4549 54.4936 13.1985C54.4936 8.942 55.5595 5.84242 57.6913 3.87789C59.8232 1.91337 63.0427 0.931107 67.3282 0.931107ZM67.3282 21.1657C68.6987 21.1657 69.8516 20.9474 70.787 20.5109C71.7442 20.0961 72.5056 19.5068 73.0929 18.8083C73.6803 18.088 74.0936 17.3458 74.3546 16.56C74.6157 15.796 74.7462 14.7919 74.7462 13.5477C74.7462 12.3035 74.6157 11.2776 74.3546 10.5136C74.0936 9.74964 73.6803 9.02931 73.0929 8.3963C72.5056 7.74146 71.7442 7.17393 70.787 6.69371C69.8516 6.21349 68.6987 5.95156 67.3282 5.95156C65.9577 5.95156 64.8048 6.21349 63.8476 6.69371C62.9122 7.17393 62.1508 7.74146 61.5635 8.3963C60.9761 9.02931 60.5628 9.74964 60.3018 10.5136C60.0407 11.2776 59.9102 12.3035 59.9102 13.5477C59.9102 14.7919 60.0407 15.796 60.3018 16.56C60.5628 17.3458 60.9761 18.088 61.5635 18.8083C62.1508 19.5068 62.9122 20.0961 63.8476 20.5109C64.8048 20.9474 65.9577 21.1657 67.3282 21.1657ZM107.094 20.751L107.137 25.0948H93.8459C92.2144 25.0948 90.6916 24.7892 89.2994 24.1562C87.9071 23.545 86.7107 22.6937 85.6883 21.5804C84.6876 20.489 83.9045 19.2012 83.3389 17.695C82.7515 16.1889 82.4687 14.5518 82.4687 12.8056C82.4687 11.0593 82.7515 9.44405 83.3389 7.98157C83.9045 6.51909 84.6876 5.27489 85.6883 4.22714C86.7107 3.1794 87.9071 2.37176 89.2994 1.80423C90.6916 1.25853 92.2144 0.974763 93.8459 0.974763H103.483L107.137 5.38403H93.8459C93.0628 5.38403 92.3231 5.58048 91.6488 5.97339C90.9744 6.38812 90.3871 6.93382 89.8867 7.61049C89.4081 8.28716 89.0166 9.16028 88.7338 10.2299C88.451 11.2994 88.2987 12.2599 88.2987 13.1112C88.2987 14.0061 88.451 14.8792 88.712 15.7524C88.9948 16.6255 89.3864 17.4331 89.8867 18.1534C90.3871 18.8956 91.0397 19.5068 91.8663 20.0088C92.6712 20.5109 93.4761 20.751 94.281 20.751H107.094ZM122.191 0.931107C126.455 0.931107 129.674 1.91337 131.806 3.87789C133.96 5.84242 135.026 8.942 135.026 13.1985C135.026 17.4549 133.96 20.5764 131.828 22.5409C129.696 24.5054 126.476 25.4877 122.191 25.4877C117.884 25.4877 114.664 24.5054 112.554 22.5409C110.422 20.5764 109.356 17.4549 109.356 13.1985C109.356 8.942 110.422 5.84242 112.554 3.87789C114.686 1.91337 117.905 0.931107 122.191 0.931107ZM122.191 21.1657C123.561 21.1657 124.714 20.9474 125.65 20.5109C126.607 20.0961 127.368 19.5068 127.956 18.8083C128.543 18.088 128.956 17.3458 129.217 16.56C129.478 15.796 129.609 14.7919 129.609 13.5477C129.609 12.3035 129.478 11.2776 129.217 10.5136C128.956 9.74964 128.543 9.02931 127.956 8.3963C127.368 7.74146 126.607 7.17393 125.65 6.69371C124.714 6.21349 123.561 5.95156 122.191 5.95156C120.82 5.95156 119.667 6.21349 118.71 6.69371C117.775 7.17393 117.014 7.74146 116.426 8.3963C115.839 9.02931 115.425 9.74964 115.164 10.5136C114.903 11.2776 114.773 12.3035 114.773 13.5477C114.773 14.7919 114.903 15.796 115.164 16.56C115.425 17.3458 115.839 18.088 116.426 18.8083C117.014 19.5068 117.775 20.0961 118.71 20.5109C119.667 20.9474 120.82 21.1657 122.191 21.1657ZM154.125 10.7537C156.322 10.7537 157.997 11.2776 159.15 12.3035C160.281 13.3513 160.869 14.9665 160.869 17.1712C160.869 18.4154 160.717 19.5286 160.434 20.5109C160.151 21.515 159.694 22.3444 159.063 23.0211C158.432 23.6759 157.628 24.1998 156.649 24.5709C155.691 24.9201 154.517 25.0948 153.125 25.0948H139.985L136.265 21.1002H153.56C154.234 21.1002 154.756 20.8601 155.148 20.3799C155.561 19.9215 155.8 19.0702 155.887 17.8478C155.8 16.7128 155.561 15.9488 155.148 15.5777C154.756 15.2285 154.234 15.032 153.56 15.032H143.749C142.596 15.032 141.595 14.9229 140.747 14.7046C139.898 14.4863 139.202 14.0716 138.637 13.4822C138.071 12.871 137.658 12.1289 137.397 11.2776C137.114 10.4263 136.983 9.4877 136.983 8.46178C136.983 7.32673 137.136 6.27898 137.44 5.3622C137.723 4.44542 138.18 3.63778 138.811 2.98294C139.42 2.34993 140.225 1.84788 141.204 1.47681C142.182 1.12756 143.357 0.931107 144.728 0.931107H155.67L160.238 5.3622H144.293C143.64 5.49317 143.183 5.68962 142.857 5.95156C142.531 6.23532 142.335 7.04296 142.226 8.37447C142.226 9.18211 142.378 9.72781 142.705 10.0334C143.009 10.339 143.531 10.5791 144.293 10.7537H154.125Z" fill="white"/>
<path d="M86.145 29.6349H88.6902C89.3645 29.6349 89.9519 29.7877 90.474 30.0497C90.9961 30.3334 91.3876 30.7045 91.6922 31.2065C91.975 31.6868 92.1055 32.2543 92.1055 32.8655C92.1055 33.4985 91.975 34.0442 91.6922 34.5462C91.3876 35.0265 90.9961 35.4194 90.474 35.6813C89.9519 35.9651 89.3645 36.096 88.6902 36.096H86.145V29.6349ZM88.6467 35.6813C89.2558 35.6813 89.7779 35.5722 90.2347 35.332C90.6915 35.0919 91.0396 34.7645 91.2789 34.328C91.5182 33.9132 91.6487 33.4112 91.6487 32.8655C91.6487 32.3198 91.5182 31.8396 91.2789 31.403C91.0396 30.9883 90.6915 30.6608 90.2347 30.4207C89.7779 30.1806 89.2558 30.0715 88.6467 30.0715H86.6018V35.6813H88.6467ZM93.6065 31.2939H94.0633V36.096H93.6065V31.2939ZM93.824 30.1151C93.7153 30.1151 93.6283 30.0715 93.563 30.006C93.476 29.9405 93.4542 29.8532 93.4542 29.7441C93.4542 29.6349 93.476 29.5476 93.563 29.4821C93.6283 29.3948 93.7153 29.3512 93.824 29.3512C93.9328 29.3512 94.0198 29.3948 94.0851 29.4603C94.1721 29.5476 94.2156 29.6349 94.2156 29.7222C94.2156 29.8314 94.1721 29.9187 94.0851 30.006C94.0198 30.0715 93.9328 30.1151 93.824 30.1151ZM100.328 31.2939V35.594C100.328 36.3798 100.133 36.991 99.741 37.3621C99.3712 37.755 98.7839 37.9296 98.0007 37.9296C97.5657 37.9296 97.1306 37.8641 96.739 37.7331C96.3475 37.6022 96.0429 37.4057 95.8036 37.1656L96.0429 36.8164C96.2822 37.0346 96.565 37.2093 96.9131 37.3402C97.2394 37.4494 97.6092 37.5149 97.979 37.5149C98.6316 37.5149 99.1102 37.3621 99.4147 37.0565C99.7193 36.7509 99.8715 36.2925 99.8715 35.6376V34.83C99.6758 35.1793 99.393 35.463 99.0449 35.6376C98.6968 35.8341 98.3053 35.9214 97.8702 35.9214C97.4134 35.9214 97.0218 35.8341 96.652 35.6376C96.2822 35.4412 95.9994 35.1574 95.7819 34.7863C95.5861 34.4371 95.4773 34.0442 95.4773 33.5858C95.4773 33.1274 95.5861 32.7345 95.7819 32.3634C95.9994 32.0142 96.2822 31.7304 96.652 31.534C97.0218 31.3375 97.4134 31.2502 97.8702 31.2502C98.3053 31.2502 98.7186 31.3375 99.0667 31.534C99.4147 31.7304 99.6975 32.0142 99.8933 32.3634V31.2939H100.328ZM97.9137 35.5067C98.2835 35.5067 98.6098 35.4412 98.9144 35.2666C99.2189 35.1138 99.4582 34.8737 99.6323 34.5899C99.7845 34.2843 99.8715 33.9569 99.8715 33.5858C99.8715 33.2147 99.7845 32.8655 99.6323 32.5817C99.4582 32.2979 99.2189 32.0797 98.9144 31.905C98.6098 31.7522 98.2835 31.6649 97.9137 31.6649C97.5222 31.6649 97.1958 31.7522 96.8913 31.905C96.6085 32.0797 96.3692 32.2979 96.1952 32.5817C96.0212 32.8655 95.9559 33.2147 95.9559 33.5858C95.9559 33.9569 96.0212 34.2843 96.1952 34.5899C96.3692 34.8737 96.6085 35.1138 96.8913 35.2666C97.1958 35.4412 97.5222 35.5067 97.9137 35.5067ZM102.286 31.2939H102.743V36.096H102.286V31.2939ZM102.504 30.1151C102.417 30.1151 102.308 30.0715 102.243 30.006C102.177 29.9405 102.134 29.8532 102.134 29.7441C102.134 29.6349 102.177 29.5476 102.243 29.4821C102.308 29.3948 102.417 29.3512 102.504 29.3512C102.613 29.3512 102.7 29.3948 102.787 29.4603C102.852 29.5476 102.895 29.6349 102.895 29.7222C102.895 29.8314 102.852 29.9187 102.787 30.006C102.7 30.0715 102.613 30.1151 102.504 30.1151ZM107.072 35.8123C106.963 35.9214 106.811 35.9869 106.637 36.0524C106.463 36.1179 106.267 36.1397 106.093 36.1397C105.658 36.1397 105.353 36.0305 105.114 35.7904C104.897 35.5722 104.766 35.2447 104.766 34.83V31.6868H103.896V31.2939H104.766V30.2243H105.245V31.2939H106.767V31.6868H105.245V34.7863C105.245 35.0919 105.31 35.332 105.462 35.5067C105.615 35.6595 105.832 35.7468 106.137 35.7468C106.441 35.7468 106.68 35.6595 106.876 35.4848L107.072 35.8123ZM109.965 31.2502C110.574 31.2502 111.031 31.403 111.336 31.7086C111.662 32.0142 111.814 32.4507 111.814 33.0401V36.096H111.379V35.2447C111.227 35.5285 111.009 35.7468 110.705 35.8996C110.422 36.0742 110.052 36.1397 109.639 36.1397C109.117 36.1397 108.682 36.0087 108.377 35.7686C108.073 35.5067 107.92 35.1793 107.92 34.7645C107.92 34.3716 108.051 34.0442 108.355 33.7823C108.638 33.5421 109.095 33.4112 109.704 33.4112H111.357V33.0401C111.357 32.5817 111.249 32.2325 110.988 32.0142C110.748 31.7741 110.4 31.6431 109.943 31.6431C109.617 31.6431 109.313 31.7086 109.008 31.8177C108.725 31.9269 108.486 32.0797 108.268 32.2543L108.051 31.9269C108.29 31.7086 108.573 31.5558 108.921 31.4248C109.247 31.3157 109.595 31.2502 109.965 31.2502ZM109.704 35.7686C110.118 35.7686 110.444 35.6813 110.727 35.4848C111.009 35.3102 111.227 35.0265 111.357 34.6772V33.7823H109.726C109.247 33.7823 108.899 33.8696 108.704 34.0442C108.486 34.2188 108.377 34.4371 108.377 34.7427C108.377 35.0701 108.486 35.3102 108.725 35.4848C108.965 35.6813 109.291 35.7686 109.704 35.7686ZM113.729 29.242H114.185V36.096H113.729V29.242ZM120.342 36.1615C119.863 36.1615 119.406 36.0742 118.971 35.8996C118.558 35.7468 118.232 35.5285 117.992 35.2666L118.188 34.9173C118.427 35.1574 118.732 35.3539 119.102 35.5067C119.493 35.6595 119.907 35.7468 120.32 35.7468C120.929 35.7468 121.408 35.6158 121.712 35.3757C122.017 35.1574 122.191 34.8518 122.191 34.4808C122.191 34.1752 122.104 33.9569 121.93 33.7823C121.777 33.6076 121.56 33.4767 121.321 33.3894C121.081 33.2802 120.733 33.1929 120.32 33.0838C119.841 32.9746 119.472 32.8655 119.189 32.7563C118.906 32.6472 118.667 32.4726 118.449 32.2325C118.253 32.0142 118.166 31.7086 118.166 31.3157C118.166 30.9883 118.232 30.7045 118.406 30.4426C118.58 30.1806 118.819 29.9842 119.167 29.8314C119.515 29.6786 119.928 29.5913 120.45 29.5913C120.799 29.5913 121.147 29.6349 121.495 29.7441C121.843 29.8532 122.126 30.006 122.387 30.1806L122.213 30.5517C121.951 30.3771 121.669 30.2461 121.364 30.137C121.038 30.0497 120.733 30.006 120.45 30.006C119.841 30.006 119.385 30.137 119.08 30.3771C118.775 30.6172 118.623 30.9228 118.623 31.2939C118.623 31.5995 118.71 31.8177 118.884 31.9924C119.036 32.167 119.254 32.2979 119.493 32.3853C119.733 32.4944 120.081 32.5817 120.494 32.6909C120.973 32.8 121.342 32.9091 121.625 33.0401C121.908 33.1492 122.147 33.302 122.343 33.5421C122.561 33.7604 122.648 34.066 122.648 34.4371C122.648 34.7645 122.561 35.0483 122.408 35.3102C122.234 35.5722 121.973 35.7686 121.625 35.9214C121.277 36.0742 120.842 36.1615 120.342 36.1615ZM125.976 36.1397C125.519 36.1397 125.106 36.0305 124.736 35.8341C124.388 35.6158 124.105 35.332 123.888 34.961C123.67 34.5899 123.583 34.1533 123.583 33.6949C123.583 33.2366 123.67 32.8 123.888 32.4289C124.105 32.0578 124.388 31.7741 124.736 31.5558C125.106 31.3593 125.519 31.2502 125.976 31.2502C126.433 31.2502 126.846 31.3593 127.216 31.5558C127.564 31.7741 127.868 32.0578 128.064 32.4289C128.282 32.8 128.369 33.2366 128.369 33.6949C128.369 34.1533 128.282 34.5899 128.064 34.961C127.868 35.332 127.564 35.6158 127.216 35.8341C126.846 36.0305 126.433 36.1397 125.976 36.1397ZM125.976 35.725C126.346 35.725 126.672 35.6376 126.977 35.463C127.259 35.2884 127.499 35.0483 127.651 34.7427C127.825 34.4371 127.912 34.0878 127.912 33.6949C127.912 33.302 127.825 32.9528 127.651 32.6472C127.499 32.3416 127.259 32.1015 126.977 31.9269C126.672 31.7522 126.346 31.6649 125.976 31.6649C125.606 31.6649 125.28 31.7522 124.975 31.9269C124.692 32.1015 124.475 32.3416 124.301 32.6472C124.127 32.9528 124.04 33.302 124.04 33.6949C124.04 34.0878 124.127 34.4371 124.301 34.7427C124.475 35.0483 124.692 35.2884 124.975 35.463C125.28 35.6376 125.606 35.725 125.976 35.725ZM129.805 29.242H130.261V36.096H129.805V29.242ZM136.418 31.2939V36.096H135.983V35.0701C135.809 35.4194 135.591 35.6813 135.265 35.8559C134.96 36.0524 134.59 36.1397 134.155 36.1397C133.546 36.1397 133.046 35.9651 132.698 35.6158C132.328 35.2666 132.154 34.7645 132.154 34.1097V31.2939H132.611V34.066C132.611 34.6117 132.763 35.0265 133.024 35.3102C133.307 35.594 133.698 35.725 134.199 35.725C134.743 35.725 135.178 35.5503 135.482 35.2229C135.809 34.8737 135.961 34.4153 135.961 33.8477V31.2939H136.418ZM140.747 35.8123C140.638 35.9214 140.486 35.9869 140.312 36.0524C140.138 36.1179 139.963 36.1397 139.768 36.1397C139.354 36.1397 139.028 36.0305 138.811 35.7904C138.571 35.5722 138.462 35.2447 138.462 34.83V31.6868H137.571V31.2939H138.462V30.2243H138.919V31.2939H140.442V31.6868H138.919V34.7863C138.919 35.0919 139.006 35.332 139.159 35.5067C139.289 35.6595 139.528 35.7468 139.811 35.7468C140.116 35.7468 140.377 35.6595 140.573 35.4848L140.747 35.8123ZM142.03 31.2939H142.487V36.096H142.03V31.2939ZM142.269 30.1151C142.161 30.1151 142.074 30.0715 142.008 30.006C141.921 29.9405 141.9 29.8532 141.9 29.7441C141.9 29.6349 141.921 29.5476 142.008 29.4821C142.074 29.3948 142.161 29.3512 142.269 29.3512C142.378 29.3512 142.465 29.3948 142.53 29.4603C142.617 29.5476 142.639 29.6349 142.639 29.7222C142.639 29.8314 142.617 29.9187 142.53 30.006C142.465 30.0715 142.378 30.1151 142.269 30.1151ZM146.316 36.1397C145.859 36.1397 145.445 36.0305 145.097 35.8341C144.728 35.6158 144.445 35.332 144.227 34.961C144.01 34.5899 143.923 34.1533 143.923 33.6949C143.923 33.2366 144.01 32.8 144.227 32.4289C144.445 32.0578 144.728 31.7741 145.097 31.5558C145.445 31.3593 145.859 31.2502 146.316 31.2502C146.772 31.2502 147.186 31.3593 147.556 31.5558C147.904 31.7741 148.208 32.0578 148.404 32.4289C148.621 32.8 148.73 33.2366 148.73 33.6949C148.73 34.1533 148.621 34.5899 148.404 34.961C148.208 35.332 147.904 35.6158 147.556 35.8341C147.186 36.0305 146.772 36.1397 146.316 36.1397ZM146.316 35.725C146.685 35.725 147.012 35.6376 147.316 35.463C147.599 35.2884 147.838 35.0483 147.991 34.7427C148.165 34.4371 148.252 34.0878 148.252 33.6949C148.252 33.302 148.165 32.9528 147.991 32.6472C147.838 32.3416 147.599 32.1015 147.316 31.9269C147.012 31.7522 146.685 31.6649 146.316 31.6649C145.946 31.6649 145.619 31.7522 145.337 31.9269C145.032 32.1015 144.815 32.3416 144.641 32.6472C144.466 32.9528 144.379 33.302 144.379 33.6949C144.379 34.0878 144.466 34.4371 144.641 34.7427C144.815 35.0483 145.032 35.2884 145.337 35.463C145.619 35.6376 145.946 35.725 146.316 35.725ZM152.494 31.2502C153.103 31.2502 153.581 31.4248 153.929 31.7741C154.277 32.1233 154.451 32.6254 154.451 33.2802V36.096H153.995V33.3239C153.995 32.7782 153.842 32.3634 153.581 32.0797C153.298 31.7959 152.929 31.6649 152.428 31.6649C151.863 31.6649 151.428 31.8396 151.101 32.167C150.775 32.5162 150.601 32.9746 150.601 33.5421V36.096H150.144V31.2939H150.601V32.3198C150.753 31.9924 151.014 31.7304 151.341 31.534C151.667 31.3375 152.059 31.2502 152.494 31.2502ZM157.562 36.1397C157.171 36.1397 156.801 36.0742 156.453 35.9651C156.105 35.8559 155.844 35.7031 155.648 35.5285L155.844 35.1574C156.039 35.332 156.3 35.463 156.605 35.5722C156.91 35.6813 157.236 35.7468 157.584 35.7468C158.063 35.7468 158.432 35.6595 158.65 35.5067C158.889 35.332 158.998 35.1138 158.998 34.83C158.998 34.6336 158.933 34.4589 158.802 34.3498C158.693 34.2406 158.519 34.1533 158.345 34.0878C158.171 34.0442 157.91 33.9787 157.584 33.9132C157.192 33.8477 156.888 33.7823 156.67 33.6949C156.431 33.6076 156.235 33.4767 156.061 33.302C155.887 33.1274 155.822 32.8873 155.822 32.5599C155.822 32.1888 155.974 31.8614 156.279 31.6213C156.605 31.3812 157.062 31.2502 157.627 31.2502C157.954 31.2502 158.237 31.2939 158.541 31.3812C158.846 31.4685 159.085 31.5776 159.281 31.7086L159.063 32.0797C158.867 31.9487 158.65 31.8396 158.411 31.7741C158.15 31.6868 157.888 31.6431 157.627 31.6431C157.171 31.6431 156.844 31.7304 156.605 31.905C156.387 32.0578 156.279 32.2979 156.279 32.5599C156.279 32.7782 156.344 32.931 156.474 33.0619C156.605 33.1929 156.757 33.2802 156.931 33.3239C157.127 33.3894 157.388 33.4548 157.736 33.5203C158.106 33.5858 158.411 33.6513 158.628 33.7386C158.867 33.8041 159.063 33.9351 159.215 34.1097C159.389 34.2843 159.455 34.5244 159.455 34.83C159.455 35.2229 159.302 35.5503 158.954 35.7904C158.628 36.0305 158.171 36.1397 157.562 36.1397Z" fill="white"/>
</svg>
