<svg width="18" height="18" viewBox="0 0 18 18" fill="none" xmlns="http://www.w3.org/2000/svg">
<ellipse cx="9" cy="12.375" rx="4.5" ry="1.875" stroke="white" stroke-width="1.5" stroke-linejoin="round"/>
<circle cx="9" cy="6" r="2.25" stroke="white" stroke-width="1.5" stroke-linejoin="round"/>
<path fill-rule="evenodd" clip-rule="evenodd" d="M5.22839 9.75002C4.12999 9.75232 3.10205 9.93009 2.31981 10.243C1.9282 10.3996 1.56097 10.6049 1.27936 10.8712C0.996175 11.139 0.75 11.5202 0.75 12C0.75 12.4798 0.996175 12.861 1.27936 13.1288C1.56097 13.3951 1.9282 13.6004 2.31981 13.757C2.7763 13.9396 3.31648 14.0762 3.9055 14.1587C3.34214 13.6507 3.01227 13.0523 3.00034 12.4111C2.95791 12.3958 2.91674 12.3802 2.87689 12.3643C2.58988 12.2495 2.40794 12.1316 2.31002 12.039C2.29403 12.0238 2.28169 12.0108 2.27223 12C2.28169 11.9892 2.29403 11.9762 2.31002 11.961C2.40794 11.8684 2.58988 11.7505 2.87689 11.6357C2.97422 11.5968 3.07938 11.5599 3.19167 11.5255C3.5186 10.8162 4.24529 10.1975 5.22839 9.75002ZM2.24331 12.0409C2.24319 12.0409 2.24364 12.0396 2.24501 12.037C2.24412 12.0396 2.24343 12.0409 2.24331 12.0409ZM2.24501 11.963C2.24364 11.9604 2.24319 11.9591 2.24331 11.9591C2.24343 11.9591 2.24412 11.9604 2.24501 11.963Z" fill="white"/>
<path fill-rule="evenodd" clip-rule="evenodd" d="M14.9997 12.4111C14.9877 13.0523 14.6579 13.6507 14.0945 14.1587C14.6835 14.0762 15.2237 13.9396 15.6802 13.757C16.0718 13.6004 16.439 13.3951 16.7206 13.1288C17.0038 12.861 17.25 12.4798 17.25 12C17.25 11.5202 17.0038 11.139 16.7206 10.8712C16.439 10.6049 16.0718 10.3996 15.6802 10.243C14.898 9.93009 13.87 9.75232 12.7716 9.75002C13.7547 10.1975 14.4814 10.8162 14.8083 11.5255C14.9206 11.5599 15.0258 11.5968 15.1231 11.6357C15.4101 11.7505 15.5921 11.8684 15.69 11.961C15.706 11.9762 15.7183 11.9892 15.7278 12C15.7183 12.0108 15.706 12.0238 15.69 12.039C15.5921 12.1316 15.4101 12.2495 15.1231 12.3643C15.0833 12.3802 15.0421 12.3958 14.9997 12.4111ZM15.7567 12.0409C15.7566 12.0409 15.7559 12.0396 15.755 12.037C15.7564 12.0396 15.7568 12.0409 15.7567 12.0409ZM15.755 11.963C15.7559 11.9604 15.7566 11.9591 15.7567 11.9591C15.7568 11.9591 15.7564 11.9604 15.755 11.963Z" fill="white"/>
<path fill-rule="evenodd" clip-rule="evenodd" d="M12.75 6C13.1642 6 13.5 6.33579 13.5 6.75C13.5 7.16421 13.1642 7.5 12.75 7.5C12.6481 7.5 12.551 7.47968 12.4624 7.44286C12.2651 7.91581 11.9737 8.3397 11.6116 8.69115C11.9455 8.88744 12.3346 9 12.75 9C13.9927 9 15 7.99264 15 6.75C15 5.50736 13.9927 4.5 12.75 4.5C12.6472 4.5 12.5459 4.5069 12.4468 4.52026C12.6419 4.97425 12.75 5.4745 12.75 6Z" fill="white"/>
<path fill-rule="evenodd" clip-rule="evenodd" d="M5.55325 4.52026C5.45407 4.5069 5.35284 4.5 5.25 4.5C4.00736 4.5 3 5.50736 3 6.75C3 7.99264 4.00736 9 5.25 9C5.66538 9 6.05448 8.88744 6.38844 8.69115C6.02635 8.3397 5.73495 7.91581 5.53763 7.44286C5.44906 7.47968 5.3519 7.5 5.25 7.5C4.83579 7.5 4.5 7.16421 4.5 6.75C4.5 6.33579 4.83579 6 5.25 6C5.25 5.4745 5.35809 4.97425 5.55325 4.52026Z" fill="white"/>
</svg>
