<svg width="18" height="18" viewBox="0 0 18 18" fill="none" xmlns="http://www.w3.org/2000/svg">
<g clipPath="url(#clip0_2308_204)">
<path d="M14.6512 2.34153L13.4093 1.09803C13.0618 0.748765 12.6484 0.471884 12.1932 0.283413C11.738 0.0949423 11.2499 -0.00137674 10.7572 3.04579e-05H6C5.0058 0.00122135 4.05267 0.396692 3.34966 1.0997C2.64666 1.8027 2.25119 2.75583 2.25 3.75003V14.25C2.25119 15.2442 2.64666 16.1974 3.34966 16.9004C4.05267 17.6034 5.0058 17.9988 6 18H12C12.9942 17.9988 13.9473 17.6034 14.6503 16.9004C15.3533 16.1974 15.7488 15.2442 15.75 14.25V4.99278C15.7512 4.50017 15.6547 4.01221 15.4661 3.55712C15.2775 3.10204 15.0006 2.68888 14.6512 2.34153ZM13.5907 3.40203C13.6971 3.50802 13.7924 3.62463 13.875 3.75003H12V1.87503C12.1252 1.95852 12.242 2.05397 12.3488 2.16003L13.5907 3.40203ZM14.25 14.25C14.25 14.8468 14.0129 15.4191 13.591 15.841C13.169 16.263 12.5967 16.5 12 16.5H6C5.40326 16.5 4.83097 16.263 4.40901 15.841C3.98705 15.4191 3.75 14.8468 3.75 14.25V3.75003C3.75 3.15329 3.98705 2.581 4.40901 2.15904C4.83097 1.73708 5.40326 1.50003 6 1.50003H10.5V3.75003C10.5 4.14786 10.658 4.52939 10.9393 4.81069C11.2206 5.092 11.6022 5.25003 12 5.25003H14.25V14.25ZM12 6.75003C12.1989 6.75003 12.3897 6.82905 12.5303 6.9697C12.671 7.11035 12.75 7.30112 12.75 7.50003C12.75 7.69894 12.671 7.88971 12.5303 8.03036C12.3897 8.17101 12.1989 8.25003 12 8.25003H6C5.80109 8.25003 5.61032 8.17101 5.46967 8.03036C5.32902 7.88971 5.25 7.69894 5.25 7.50003C5.25 7.30112 5.32902 7.11035 5.46967 6.9697C5.61032 6.82905 5.80109 6.75003 6 6.75003H12ZM12.75 10.5C12.75 10.6989 12.671 10.8897 12.5303 11.0304C12.3897 11.171 12.1989 11.25 12 11.25H6C5.80109 11.25 5.61032 11.171 5.46967 11.0304C5.32902 10.8897 5.25 10.6989 5.25 10.5C5.25 10.3011 5.32902 10.1104 5.46967 9.9697C5.61032 9.82905 5.80109 9.75003 6 9.75003H12C12.1989 9.75003 12.3897 9.82905 12.5303 9.9697C12.671 10.1104 12.75 10.3011 12.75 10.5ZM12.606 13.0598C12.7226 13.2202 12.7709 13.4202 12.7404 13.6161C12.7099 13.812 12.6031 13.9879 12.4432 14.1053C11.6834 14.6468 10.7834 14.9574 9.85125 15C9.30666 14.9974 8.77861 14.8126 8.35125 14.475C8.10525 14.3063 8.0115 14.25 7.82625 14.25C7.32482 14.3276 6.85171 14.5327 6.45225 14.8455C6.29381 14.9585 6.09768 15.0054 5.90527 14.9765C5.71286 14.9475 5.53924 14.8449 5.42106 14.6903C5.30289 14.5357 5.24942 14.3413 5.27194 14.148C5.29445 13.9548 5.3912 13.7778 5.54175 13.6545C6.20263 13.1415 6.99621 12.8277 7.82925 12.75C8.32885 12.758 8.81184 12.9307 9.20325 13.2413C9.38166 13.4018 9.61137 13.4935 9.85125 13.5C10.4645 13.4541 11.0542 13.2446 11.559 12.8933C11.72 12.7766 11.9206 12.7286 12.117 12.7598C12.3133 12.7911 12.4892 12.8989 12.606 13.0598Z" fill="white"/>
</g>
<defs>
<clipPath id="clip0_2308_204">
<rect width="18" height="18" fill="white"/>
</clipPath>
</defs>
</svg>
