<svg width="18" height="18" viewBox="0 0 18 18" fill="none" xmlns="http://www.w3.org/2000/svg">
<path d="M11.25 1.5H6.75C3.855 1.5 1.5 3.85575 1.5 6.75V11.25C1.5 14.1442 3.855 16.5 6.75 16.5H11.25C14.145 16.5 16.5 14.1442 16.5 11.25V6.75C16.5 3.85575 14.145 1.5 11.25 1.5ZM15 11.25C15 13.3177 13.3177 15 11.25 15H6.75C4.68225 15 3 13.3177 3 11.25V6.75C3 4.68225 4.68225 3 6.75 3H11.25C13.3177 3 15 4.68225 15 6.75V11.25ZM12.75 9C12.75 9.41475 12.414 9.75 12 9.75H9.75V12C9.75 12.4147 9.414 12.75 9 12.75C8.586 12.75 8.25 12.4147 8.25 12V9.75H6C5.586 9.75 5.25 9.41475 5.25 9C5.25 8.58525 5.586 8.25 6 8.25H8.25V6C8.25 5.58525 8.586 5.25 9 5.25C9.414 5.25 9.75 5.58525 9.75 6V8.25H12C12.414 8.25 12.75 8.58525 12.75 9Z" fill="#061426"/>
</svg>
