<svg width="14" height="15" viewBox="0 0 14 15" fill="none" xmlns="http://www.w3.org/2000/svg">
<path d="M3.0625 2.25C2.34281 2.25 1.75 2.84281 1.75 3.5625C1.75 4.28219 2.34281 4.875 3.0625 4.875C3.78219 4.875 4.375 4.28219 4.375 3.5625C4.375 2.84281 3.78219 2.25 3.0625 2.25ZM8.28537 2.64638C8.1482 2.64883 8.01124 2.65818 7.875 2.67437C6.79481 2.80081 5.78681 3.35425 5.01769 4.12337C4.47737 4.6615 4.02981 5.43588 3.88281 6.87131C3.87752 6.88476 3.873 6.89849 3.86925 6.91244V6.926C3.85827 6.94813 3.84905 6.9711 3.84169 6.99469C3.83994 7.00475 3.84344 7.01 3.84169 7.02181V7.0765C3.84576 7.13316 3.85967 7.18868 3.88281 7.24056C3.90469 7.63388 3.95981 8.0355 4.10156 8.41656H4.088C4.09456 8.45419 4.13919 8.64188 4.14269 8.8265C4.14444 8.96519 4.09456 9.09163 4.088 9.1275C3.82112 9.39219 3.50175 9.66913 3.19944 9.90669C2.89669 10.1443 2.63506 10.3494 2.44694 10.5358H2.43381C2.32136 10.6543 2.23902 10.798 2.19372 10.9549C2.14841 11.1118 2.14148 11.2773 2.1735 11.4375C2.24 11.7438 2.41587 12.0084 2.65169 12.2443C2.88619 12.4783 3.15262 12.6524 3.45844 12.7224C3.76469 12.7924 4.13525 12.7023 4.37456 12.463C4.56619 12.2714 4.75081 12.0014 4.98969 11.6974C5.229 11.3929 5.50069 11.063 5.76887 10.7948C5.73825 10.8254 5.87169 10.7541 6.04275 10.7541C6.181 10.7541 6.29562 10.7673 6.384 10.7813C6.40675 10.7848 6.45269 10.7931 6.46625 10.7948C6.84731 10.9366 7.24937 10.9899 7.64225 11.0136C7.64706 11.0136 7.651 11.0276 7.65581 11.0276C7.68644 11.0359 7.71925 11.0394 7.75162 11.0407C7.76492 11.0461 7.7785 11.0508 7.79231 11.0547H7.875C7.90256 11.0529 7.92969 11.0477 7.95725 11.0411C7.97431 11.0394 7.98087 11.0289 7.99794 11.0271H8.01194C9.32925 10.9178 10.2126 10.4409 10.7734 9.87869C11.5426 9.11 12.096 8.10156 12.2229 7.02181C12.3493 5.94119 12.0124 4.78794 11.0604 3.83594C10.2283 3.00381 9.24219 2.63981 8.28537 2.64638ZM3.0625 3.125C3.30881 3.125 3.5 3.31663 3.5 3.5625C3.5 3.80881 3.30837 4 3.0625 4C2.81619 4 2.625 3.80838 2.625 3.5625C2.625 3.31619 2.81662 3.125 3.0625 3.125ZM8.28537 3.52138C9.02344 3.50781 9.76325 3.76944 10.4453 4.45106C11.2262 5.23025 11.4472 6.08294 11.3479 6.92556C11.2486 7.76819 10.8058 8.61606 10.1579 9.26356C9.72256 9.69931 9.09037 10.0397 7.98437 10.1386L4.75781 6.912C4.886 5.67825 5.19006 5.20838 5.64637 4.75206C6.29387 4.10456 7.12644 3.64781 7.97081 3.54894C8.07669 3.53669 8.1795 3.52313 8.28537 3.52138ZM4.96256 8.375L6.52094 9.91981C6.36289 9.89232 6.20273 9.8787 6.04231 9.87913C5.77587 9.88044 5.43769 9.89619 5.15419 10.1797C4.85276 10.4864 4.56964 10.8105 4.30631 11.1505C4.06175 11.4611 3.84475 11.7486 3.74588 11.8474C3.69425 11.8991 3.71962 11.8903 3.64962 11.875C3.57962 11.8597 3.43787 11.7726 3.28081 11.6151C3.12681 11.4616 3.05025 11.3194 3.0345 11.2463C3.01919 11.1728 3.00387 11.1929 3.0485 11.1501C3.14037 11.0582 3.41906 10.8359 3.73187 10.5901C4.04469 10.3438 4.40169 10.0563 4.71625 9.74219C5.019 9.43988 5.0225 9.08944 5.01725 8.8125C5.01375 8.6025 4.98137 8.47913 4.96256 8.375Z" fill="#061426"/>
</svg>
